<svg width="201" height="221" viewBox="0 0 201 221" fill="none" xmlns="http://www.w3.org/2000/svg">
<path d="M50.8941 32.0114C50.8941 32.0114 80.9179 54.7954 126.562 12.1934C167.098 -25.6403 200.196 34.0528 200.428 62.6389C200.728 99.6689 159.892 129.299 179.71 153.621C199.527 177.942 140.408 218.106 108.546 183.347C68.9101 140.108 58.1724 175.24 35.5803 175.24C19.3657 175.24 -13.9245 134.951 8.55598 104.977C27.4731 79.7541 17.156 71.3833 12.1599 62.6389C4.9528 50.0275 22.0682 15.7969 50.8941 32.0114Z" fill="#DEE9FF"/>
<path d="M95.2911 27.1119C97.5947 23.0823 103.405 23.0822 105.709 27.1119L182.403 161.272C184.69 165.272 181.802 170.25 177.194 170.25H23.8056C19.1982 170.25 16.3101 165.272 18.5967 161.272L95.2911 27.1119Z" fill="#0E84E5"/>
<circle cx="100" cy="147" r="12" fill="#A2BDFF"/>
<rect x="92" y="57" width="17" height="72" rx="8.5" fill="#A2BDFF"/>
</svg>
